<svg xmlns="http://www.w3.org/2000/svg" viewBox="0 0 512 512">
  <defs>
    <linearGradient id="bg512" x1="0" y1="0" x2="1" y2="1">
      <stop offset="0%" stop-color="#7B66FF"/>
      <stop offset="100%" stop-color="#5A46E6"/>
    </linearGradient>
  </defs>
  <rect width="512" height="512" rx="100" fill="url(#bg512)"/>
  <circle cx="256" cy="256" r="149" fill="#FFFFFF" opacity="0.97"/>
  <svg x="120" y="120" width="272" height="272" viewBox="0 -960 960 960" aria-hidden="true">
    <path transform="translate(-40 0)" fill="#5F4CF5" d="M601.33-120q-120.66 0-212-67.67Q298-255.33 266-364.67H120v-66.66h130.67q-2-11.67-2.67-24.34-.67-12.66-.67-24.33 0-11.67.67-24.33.67-12.67 2.67-24.34H120v-66.66h146q34-112 124.33-178.34 90.34-66.33 211-66.33 69 0 129.84 23 60.83 23 109.5 68.33l-57.34 57.34q-37-33-84.16-50.5-47.17-17.5-97.84-17.5-89 0-154.5 43.83t-93.5 120.17H602v66.66H332.67Q330-517 329-504.33q-1 12.66-1 24.33 0 11.67 1 24.33 1 12.67 3.67 24.34H602v66.66H353.33Q380.67-287 448.5-243.83q67.83 43.16 152.83 43.16 50.67 0 98.5-17.5 47.84-17.5 83.5-50.5L840.67-212q-51.34 46-111.84 69t-127.5 23Z"/>
  </svg>
</svg>
